<?xml version="1.0" encoding="UTF-8" standalone="no"?>
<!DOCTYPE svg  PUBLIC '-//W3C//DTD SVG 1.1//EN'  'http://www.w3.org/Graphics/SVG/1.1/DTD/svg11.dtd'>
<svg version="1.1" xmlns="http://www.w3.org/2000/svg">
<defs>
<font id="FiraSansCondensed-Thin" horiz-adv-x="593">
<font-face underline-thickness="50" cap-height="681" underline-position="-150" x-height="519" panose-1="2 11 3 3 5 0 0 2 0 4" descent="-200" font-weight="100" font-stretch="condensed" units-per-em="1000" ascent="800" font-family="Fira Sans Condensed Thin" unicode-range="U+0020-00FE" bbox="1 -212 796 927"/>
<missing-glyph/>
<glyph unicode=" " glyph-name="space" horiz-adv-x="253"/>
<glyph unicode="!" d="M121 681v-479h-21l-1 479h22zM110 37q23 0 23 -23q0 -22 -23 -22q-10 0 -16.5 6.5t-6.5 15.5q0 10 6.5 16.5t16.5 6.5z" glyph-name="exclam" horiz-adv-x="221"/>
<glyph unicode='&quot;' d="M77 441l-2 240h22l-2 -240h-18zM215 441l-2 240h22l-2 -240h-18z" glyph-name="quotedbl" horiz-adv-x="310"/>
<glyph unicode="#" d="M407 459h-68l-32 -239h69v-20h-72l-26 -200h-23l27 200h-178l-26 -200h-23l27 200h-69v20h71l32 239h-72v20h74l25 183h22l-24 -183h178l24 183h22l-24 -183h66v-20zM284 220l32 239h-178l-31 -239h177z" glyph-name="numbersign" horiz-adv-x="420"/>
<glyph unicode="$" d="M392 176q0 -76 -44.5 -128t-115.5 -58v-136h-20v136q-94 1 -167 79l14 14q70 -73 157 -73q69 0 111.5 46t42.5 119q0 68 -32.5 104.5t-114.5 67.5q-87 32 -121.5 70t-34.5 101q0 61 40.5 105t105.5 47v141h20v-141q78 -2 141 -67l-14 -15q-59 62 -137 62q-60 0 -97 -37.5 t-37 -94.5t31.5 -90t110.5 -62q86 -32 123.5 -73.5t37.5 -116.5z" glyph-name="dollar" horiz-adv-x="450"/>
<glyph unicode="%" d="M526 695l18 -10l-397 -700l-18 9zM175 673q53 0 85 -41t32 -113q0 -74 -31 -116t-86 -42q-54 0 -85.5 41t-31.5 114q0 74 31 115.5t86 41.5zM175 654q-47 0 -71 -37t-24 -101q0 -62 24 -99t71 -37t71 37t24 102q0 63 -24 99t-71 36zM491 302q53 0 85 -40.5t32 -113.5 q0 -74 -31 -116t-86 -42q-54 0 -85.5 41t-31.5 114q0 75 31 116t86 41zM491 283q-47 0 -71 -37t-24 -101q0 -62 24 -99t71 -37t71 37.5t24 101.5q0 63 -24 99t-71 36z" glyph-name="percent" horiz-adv-x="666"/>
<glyph unicode="&amp;" d="M264 692q58 0 93.5 -39.5t35.5 -104.5q0 -57 -33 -97.5t-108 -89.5l201 -221q41 95 61 213l21 -5q-21 -123 -68 -222l111 -121l-17 -12l-105 114q-75 -117 -193 -117q-74 0 -122.5 48t-48.5 127q0 66 31 111.5t96 88.5q-51 57 -70 92.5t-19 86.5q0 66 37.5 107t96.5 41z M264 672q-51 0 -81.5 -35t-30.5 -92q0 -44 16 -76.5t69 -92.5q70 44 101.5 82t31.5 90q0 59 -29 91.5t-77 32.5zM233 352q-60 -39 -89 -83t-29 -104q0 -69 41.5 -111.5t106.5 -42.5q111 0 178 110z" glyph-name="ampersand" horiz-adv-x="636"/>
<glyph unicode="&apos;" d="M77 441l-2 240h22l-2 -240h-18z" glyph-name="quotesingle" horiz-adv-x="172"/>
<glyph unicode="(" d="M207 829l14 -9q-36 -63 -55 -100t-42.5 -97t-33.5 -126.5t-10 -146.5q0 -81 10 -147t33.5 -126t42 -97t55.5 -100l-14 -9q-38 61 -59 101t-45 100t-34.5 128t-10.5 150t10.5 150t34.5 128t45 100t59 101z" glyph-name="parenleft" horiz-adv-x="279"/>
<glyph unicode=")" d="M72 829q37 -60 59 -100.5t45.5 -100.5t34 -128t10.5 -150q0 -154 -36.5 -255.5t-112.5 -223.5l-14 9q36 61 55.5 99.5t42.5 98t33 125.5t10 147q0 106 -21.5 196t-46 140.5t-73.5 133.5z" glyph-name="parenright" horiz-adv-x="279"/>
<glyph unicode="*" d="M335 603l-132 -46l83 -127l-18 -11l-78 127l-78 -127l-18 11l83 126l-132 47l8 20l128 -52l-1 161h21l-2 -160l128 51z" glyph-name="asterisk" horiz-adv-x="380"/>
<glyph unicode="+" d="M220 494v-153h131v-21h-131v-152h-22v152h-132v21h132v153h22z" glyph-name="plus" horiz-adv-x="417"/>
<glyph unicode="," d="M81 37q23 0 23 -22q0 -11 -9 -33l-39 -112h-17l34 124q-15 5 -15 20q0 10 6.5 16.5t16.5 6.5z" glyph-name="comma" horiz-adv-x="158"/>
<glyph unicode="-" d="M66 302v21h211v-21h-211z" glyph-name="hyphen" horiz-adv-x="344"/>
<glyph unicode="." d="M77 37q10 0 16.5 -6.5t6.5 -16.5q0 -9 -6.5 -15.5t-16.5 -6.5t-16.5 6.5t-6.5 15.5q0 10 6.5 16.5t16.5 6.5z" glyph-name="period" horiz-adv-x="154"/>
<glyph unicode="/" d="M314 798l19 -5l-201 -888l-19 5z" glyph-name="slash" horiz-adv-x="447"/>
<glyph unicode="0" d="M237 673q168 0 168 -343q0 -340 -168 -340t-168 342q0 341 168 341zM237 652q-146 0 -146 -320q0 -321 146 -321q145 0 145 319q0 166 -36 244t-109 78z" glyph-name="zero" horiz-adv-x="474"/>
<glyph unicode="1" d="M223 661v-661h-22v635l-149 -109l-11 16l164 119h18z" glyph-name="one" horiz-adv-x="340"/>
<glyph unicode="2" d="M182 673q68 0 107 -45t39 -117q0 -95 -50 -181.5t-220 -307.5h284l-5 -22h-305v21q173 223 223.5 311t50.5 179q0 65 -33 103t-91 38q-79 0 -138 -80l-16 11q66 90 154 90z" glyph-name="two" horiz-adv-x="392"/>
<glyph unicode="3" d="M187 673q67 0 106.5 -44.5t39.5 -117.5q0 -70 -34.5 -109.5t-91.5 -48.5q63 -4 102.5 -47t39.5 -123q0 -86 -46 -139.5t-121 -53.5q-51 0 -88 20t-70 63l15 11q33 -40 65.5 -57t76.5 -17q67 0 106 47t39 125q0 80 -40.5 120t-110.5 40h-34l3 19h30q56 0 96.5 38.5 t40.5 111.5q0 66 -33.5 104t-91.5 38q-72 0 -133 -65l-13 12q61 73 147 73z" glyph-name="three" horiz-adv-x="409"/>
<glyph unicode="4" d="M400 207v-20h-80v-187h-21v187h-255v18l176 468l19 -7l-172 -459h232l3 211h18v-211h80z" glyph-name="four" horiz-adv-x="434"/>
<glyph unicode="5" d="M340 661l-4 -20h-240v-265q50 39 106 39q73 0 114.5 -53t41.5 -148q0 -101 -45.5 -162.5t-124.5 -61.5q-90 0 -152 75l17 13q53 -67 136 -67q68 0 107 54.5t39 148.5q0 88 -36 134t-99 46q-54 0 -108 -40h-17v307h265z" glyph-name="five" horiz-adv-x="409"/>
<glyph unicode="6" d="M247 427q66 0 106.5 -51.5t40.5 -153.5q0 -113 -41.5 -172.5t-113.5 -59.5q-89 0 -129.5 80.5t-40.5 217.5q0 183 51.5 284t143.5 101q51 0 96 -37l-13 -16q-37 32 -84 32q-80 0 -125 -91.5t-47 -247.5q62 114 156 114zM239 11q64 0 98 55t34 155q0 93 -33.5 139 t-90.5 46q-93 0 -156 -127q3 -268 148 -268z" glyph-name="six" horiz-adv-x="447"/>
<glyph unicode="7" d="M336 661v-18l-236 -649l-20 8l233 639h-281v20h304z" glyph-name="seven" horiz-adv-x="373"/>
<glyph unicode="8" d="M267 345q74 -34 104.5 -72.5t30.5 -105.5q0 -83 -47.5 -130t-126.5 -47q-80 0 -126.5 47.5t-46.5 130.5q0 136 135 195q-60 27 -84.5 60.5t-24.5 89.5q0 76 42.5 118t105.5 42t105.5 -41t42.5 -120q0 -55 -25.5 -93.5t-84.5 -73.5zM103 512q0 -50 23 -80.5t87 -60.5 l37 -18q56 34 80.5 70t24.5 88q0 71 -35 106.5t-91 35.5q-55 0 -90.5 -36.5t-35.5 -104.5zM228 11q69 0 110 39.5t41 116.5q0 65 -30 100t-106 70l-34 15q-69 -30 -100.5 -73.5t-31.5 -110.5q0 -77 40.5 -117t110.5 -40z" glyph-name="eight" horiz-adv-x="457"/>
<glyph unicode="9" d="M215 673q84 0 123 -69t39 -207q0 -177 -66 -269.5t-203 -142.5l-7 18q124 46 186 127.5t68 231.5q-58 -107 -149 -107q-69 0 -111.5 54t-42.5 150q0 102 45 158t118 56zM207 276q86 0 148 117q0 132 -32.5 195.5t-106.5 63.5q-65 0 -102.5 -49t-37.5 -145 q0 -87 35.5 -134.5t95.5 -47.5z" glyph-name="nine" horiz-adv-x="440"/>
<glyph unicode=":" d="M77 452q10 0 16.5 -7t6.5 -16t-6.5 -16t-16.5 -7t-16.5 7t-6.5 16t6.5 16t16.5 7zM77 37q10 0 16.5 -6.5t6.5 -16.5q0 -9 -6.5 -15.5t-16.5 -6.5t-16.5 6.5t-6.5 15.5q0 10 6.5 16.5t16.5 6.5z" glyph-name="colon" horiz-adv-x="154"/>
<glyph unicode=";" d="M77 452q10 0 16.5 -7t6.5 -16t-6.5 -16t-16.5 -7t-16.5 7t-6.5 16t6.5 16t16.5 7zM81 37q23 0 23 -22q0 -11 -9 -33l-39 -112h-17l34 124q-15 5 -15 20q0 10 6.5 16.5t16.5 6.5z" glyph-name="semicolon" horiz-adv-x="158"/>
<glyph unicode="&lt;" d="M348 502l11 -17l-271 -152l271 -156l-10 -18l-283 166v16z" glyph-name="less" horiz-adv-x="425"/>
<glyph unicode="=" d="M66 399v21h285v-21h-285zM66 242v21h285v-21h-285z" glyph-name="equal" horiz-adv-x="417"/>
<glyph unicode="&gt;" d="M77 502l282 -161v-16l-283 -166l-10 18l271 156l-271 152z" glyph-name="greater" horiz-adv-x="425"/>
<glyph unicode="?" d="M203 691q62 0 98.5 -38.5t36.5 -97.5q0 -40 -16.5 -70t-39.5 -49t-46 -38.5t-39.5 -51.5t-16.5 -75v-69h-21v71q0 46 16 79t39 52.5t46.5 38t39.5 46.5t16 66q0 52 -31 84t-82 32q-42 0 -73.5 -18.5t-61.5 -58.5l-16 12q63 85 151 85zM170 37q10 0 16.5 -6.5t6.5 -16.5 q0 -9 -6.5 -15.5t-16.5 -6.5t-16.5 6.5t-6.5 15.5q0 10 6.5 16.5t16.5 6.5z" glyph-name="question" horiz-adv-x="390"/>
<glyph unicode="@" d="M457 692q161 0 250 -108.5t89 -274.5q0 -158 -40.5 -226t-101.5 -68q-42 0 -68 31t-33 86q-43 -115 -129 -115q-62 0 -101.5 55.5t-39.5 159.5q0 121 48.5 183t123.5 62q55 0 113 -33v-260q0 -150 86 -150q119 0 119 274q0 159 -83 261t-233 102q-153 0 -249.5 -123 t-96.5 -305q0 -200 94.5 -309.5t249.5 -109.5q85 0 158 31l7 -19q-82 -33 -165 -33q-163 0 -265 115.5t-102 324.5q0 191 103 320t266 129zM425 37q44 0 76 36.5t46 95.5v263q-50 24 -92 24q-68 0 -108.5 -58t-40.5 -166q0 -95 32 -145t87 -50z" glyph-name="at" horiz-adv-x="885"/>
<glyph unicode="A" d="M439 0l-60 203h-270l-59 -203h-22l203 681h28l203 -681h-23zM115 224h258l-129 439z" glyph-name="A" horiz-adv-x="490"/>
<glyph unicode="B" d="M299 361q70 -5 112 -49t42 -128q0 -91 -53.5 -137.5t-150.5 -46.5h-144v681h115q99 0 151.5 -43.5t52.5 -124.5q0 -64 -32.5 -102.5t-92.5 -49.5zM223 660h-96v-290h128q68 0 106.5 39t38.5 103q0 148 -177 148zM250 21q180 0 180 163q0 81 -44.5 123.5t-125.5 42.5h-133 v-329h123z" glyph-name="B" horiz-adv-x="506"/>
<glyph unicode="C" d="M296 691q80 0 140 -58l-13 -15q-31 27 -58.5 39.5t-66.5 12.5q-94 0 -151 -81t-57 -249q0 -160 56.5 -244t148.5 -84q44 0 74 15t60 43l13 -16q-62 -64 -147 -64q-103 0 -166 90.5t-63 259.5q0 174 64 262.5t166 88.5z" glyph-name="C" horiz-adv-x="464"/>
<glyph unicode="D" d="M210 681q53 0 95 -13.5t81 -48t60.5 -103t21.5 -168.5q0 -82 -15.5 -145t-39.5 -100.5t-58.5 -61.5t-68 -32.5t-71.5 -8.5h-110v681h105zM210 660h-83v-639h88q229 0 229 327q0 96 -20 161.5t-56 96.5t-73 42.5t-85 11.5z" glyph-name="D" horiz-adv-x="534"/>
<glyph unicode="E" d="M383 681l-3 -21h-253v-290h218v-21h-218v-328h262v-21h-284v681h278z" glyph-name="E" horiz-adv-x="426"/>
<glyph unicode="F" d="M105 0v681h273l-2 -21h-249v-304h215v-21h-215v-335h-22z" glyph-name="F" horiz-adv-x="406"/>
<glyph unicode="G" d="M299 691q81 0 147 -59l-14 -16q-60 54 -133 54q-85 0 -147 -82t-62 -243q0 -163 57 -248t156 -85q73 0 135 41v280h-125l-3 21h150v-313q-74 -51 -155 -51q-110 0 -174.5 91.5t-64.5 263.5q0 167 69.5 256.5t163.5 89.5z" glyph-name="G" horiz-adv-x="522"/>
<glyph unicode="H" d="M441 0v349h-314v-349h-22v681h22v-311h314v311h22v-681h-22z" glyph-name="H" horiz-adv-x="568"/>
<glyph unicode="I" d="M127 681v-681h-22v681h22z" glyph-name="I" horiz-adv-x="232"/>
<glyph unicode="J" d="M140 681v-594q0 -76 -23 -114t-92 -73l-6 16q60 33 79.5 68t19.5 105v592h22z" glyph-name="J" horiz-adv-x="240"/>
<glyph unicode="K" d="M127 681v-681h-22v681h22zM425 681l-267 -314l281 -367h-26l-283 367l269 314h26z" glyph-name="K" horiz-adv-x="450"/>
<glyph unicode="L" d="M127 681v-659h248l-4 -22h-266v681h22z" glyph-name="L" horiz-adv-x="393"/>
<glyph unicode="M" d="M527 681l64 -681h-22l-33 345q-1 13 -28 316l-168 -577h-23l-170 577q-4 -66 -28 -307l-30 -354h-22l63 681h33l166 -569l164 569h34z" glyph-name="M" horiz-adv-x="658"/>
<glyph unicode="N" d="M465 681v-681h-29l-312 655q3 -102 3 -178v-477h-22v681h29l312 -655q-3 120 -3 179v476h22z" glyph-name="N" horiz-adv-x="570"/>
<glyph unicode="O" d="M296 691q107 0 169 -89t62 -262q0 -170 -61 -260t-170 -90q-106 0 -168 89.5t-62 259.5t62.5 261t167.5 91zM296 670q-95 0 -150.5 -84t-55.5 -247q0 -161 55.5 -244t150.5 -83q100 0 153.5 82t53.5 246q0 165 -55 247.5t-152 82.5z" glyph-name="O"/>
<glyph unicode="P" d="M200 681q120 0 176.5 -47.5t56.5 -149.5q0 -202 -236 -202h-70v-282h-22v681h95zM199 303q104 0 157 42t53 138q0 94 -49.5 135.5t-159.5 41.5h-73v-357h72z" glyph-name="P" horiz-adv-x="477"/>
<glyph unicode="Q" d="M358 6q121 -3 186 -70l-16 -17q-44 42 -95 57.5t-135 15.5h-2q-106 0 -168 88.5t-62 258.5t62.5 261t167.5 91q108 0 169.5 -88.5t61.5 -262.5q0 -293 -169 -334zM90 339q0 -161 55.5 -244t150.5 -83q100 0 153.5 82t53.5 246q0 165 -55 247.5t-152 82.5 q-95 0 -150.5 -84t-55.5 -247z" glyph-name="Q"/>
<glyph unicode="R" d="M456 0h-26l-162 326q-18 -2 -26 -2h-115v-324h-22v681h117q207 0 207 -177q0 -73 -36.5 -117t-100.5 -57zM232 345q173 0 173 159q0 78 -42.5 117t-143.5 39h-92v-315h105z" glyph-name="R" horiz-adv-x="493"/>
<glyph unicode="S" d="M229 691q88 0 155 -69l-14 -15q-63 63 -141 63q-62 0 -100.5 -39t-38.5 -97q0 -59 32.5 -93t114.5 -64q89 -32 127.5 -75t38.5 -120q0 -83 -51 -137.5t-130 -54.5q-100 0 -177 82l15 14q72 -74 161 -74q71 0 115 47t44 122q0 70 -33.5 107.5t-117.5 69.5q-89 33 -125 72 t-36 104t45 111t116 46z" glyph-name="S" horiz-adv-x="461"/>
<glyph unicode="T" d="M399 681l-3 -21h-179v-660h-23v660h-180v21h385z" glyph-name="T" horiz-adv-x="410"/>
<glyph unicode="U" d="M454 681v-497q0 -87 -44.5 -140.5t-134.5 -53.5q-91 0 -135.5 53.5t-44.5 140.5v497h22v-495q0 -80 38.5 -127t119.5 -47q80 0 118 47.5t38 126.5v495h23z" glyph-name="U" horiz-adv-x="549"/>
<glyph unicode="V" d="M437 681l-193 -681h-27l-194 681h23l185 -660l183 660h23z" glyph-name="V" horiz-adv-x="460"/>
<glyph unicode="W" d="M652 681l-136 -681h-28l-144 659l-145 -659h-28l-136 681h23l128 -658l143 658h29l144 -657l128 657h22z" glyph-name="W" horiz-adv-x="687"/>
<glyph unicode="X" d="M221 370l185 -370h-24l-175 355l-170 -355h-24l181 369l-160 312h24l149 -298l148 298h24z" glyph-name="X" horiz-adv-x="419"/>
<glyph unicode="Y" d="M409 681l-183 -411v-270h-23v270l-185 411h24l173 -390l170 390h24z" glyph-name="Y" horiz-adv-x="427"/>
<glyph unicode="Z" d="M395 681v-19l-335 -640h325l-3 -22h-347v21l336 639h-304v21h328z" glyph-name="Z" horiz-adv-x="438"/>
<glyph unicode="[" d="M199 796v-17h-93v-868h93v-17h-112v902h112z" glyph-name="bracketleft" horiz-adv-x="269"/>
<glyph unicode="\" d="M132 798l201 -888l-19 -5l-201 888z" glyph-name="backslash" horiz-adv-x="447"/>
<glyph unicode="]" d="M182 796v-902h-112v17h92v868h-92v17h112z" glyph-name="bracketright" horiz-adv-x="269"/>
<glyph unicode="^" d="M233 823l153 -296h-27l-134 269l-134 -269h-27l153 296h16z" glyph-name="asciicircum" horiz-adv-x="452"/>
<glyph unicode="_" d="M37 -100v21h377v-21h-377z" glyph-name="underscore" horiz-adv-x="451"/>
<glyph unicode="`" d="M46 759l151 -90l-9 -15l-154 84z" glyph-name="grave" horiz-adv-x="222"/>
<glyph unicode="a" d="M355 99q0 -43 9 -63.5t31 -29.5l-6 -16q-53 18 -54 100q-49 -100 -143 -100q-64 0 -100 42.5t-36 111.5q0 79 49 121.5t135 42.5h93v67q0 67 -26 100.5t-85 33.5q-54 0 -126 -32l-6 18q71 34 133 34q132 0 132 -152v-278zM193 11q92 0 140 107v170h-91 q-79 0 -120.5 -36.5t-41.5 -107.5q0 -63 30 -98t83 -35z" glyph-name="a" horiz-adv-x="455"/>
<glyph unicode="b" d="M266 529q159 0 159 -265q0 -132 -42.5 -203t-122.5 -71q-84 0 -138 89l-2 -79h-20v733l22 3v-299q57 92 144 92zM259 11q142 0 142 253q0 245 -136 245q-46 0 -78.5 -25t-64.5 -74v-303q57 -96 137 -96z" glyph-name="b" horiz-adv-x="487"/>
<glyph unicode="c" d="M244 529q67 0 116 -50l-12 -15q-45 45 -104 45q-73 0 -116 -64t-43 -188q0 -122 43 -184t115 -62q62 0 109 47l13 -14q-54 -54 -121 -54q-83 0 -132.5 69t-49.5 198q0 131 48.5 201.5t133.5 70.5z" glyph-name="c" horiz-adv-x="395"/>
<glyph unicode="d" d="M369 736l22 -3v-733h-19l-3 88q-48 -98 -139 -98q-78 0 -122.5 70t-44.5 198q0 125 47 198t128 73q84 0 131 -82v289zM230 11q89 0 139 112v293q-48 93 -131 93q-70 0 -111.5 -66t-40.5 -185q1 -120 39 -183.5t105 -63.5z" glyph-name="d" horiz-adv-x="492"/>
<glyph unicode="e" d="M398 284q0 -16 -2 -38h-311q2 -118 44 -176.5t112 -58.5q65 0 126 55l12 -15q-64 -61 -137 -61q-83 0 -131.5 68.5t-48.5 196.5q0 130 46.5 202t127.5 72q79 0 120.5 -65t41.5 -180zM375 265q1 8 1 27q0 102 -34.5 159.5t-105.5 57.5q-67 0 -108.5 -61t-42.5 -183h290z " glyph-name="e" horiz-adv-x="454"/>
<glyph unicode="f" d="M213 716q-88 0 -88 -94v-103h126l-3 -20h-123v-499h-22v499h-77v20h77v106q0 53 30 82.5t79 29.5q53 0 100 -31l-10 -17q-44 27 -89 27z" glyph-name="f" horiz-adv-x="265"/>
<glyph unicode="g" d="M400 550l7 -24q-42 -14 -132 -15q90 -32 90 -155q0 -79 -41 -122.5t-112 -43.5q-32 0 -64 14q-45 -30 -45 -75q0 -66 93 -66h59q67 0 104 -32.5t37 -87.5q0 -65 -45.5 -102.5t-134.5 -37.5q-94 0 -136.5 32.5t-42.5 106.5h21q1 -64 37 -91t121 -27q80 0 118.5 31.5 t38.5 86.5q0 48 -31 74.5t-89 26.5h-59q-56 0 -84 22.5t-28 60.5q0 51 49 85q-76 46 -76 147q0 79 42 125t113 46q61 0 98.5 3t53 6.5t38.5 11.5zM210 509q-64 0 -98 -40.5t-34 -110.5q0 -71 38 -109.5t96 -38.5q62 0 96 37t34 109t-35 112.5t-97 40.5z" glyph-name="g" horiz-adv-x="421"/>
<glyph unicode="h" d="M285 529q120 0 120 -160v-369h-22v367q0 142 -100 142q-92 0 -161 -127v-382h-22v733l22 3v-323q66 116 163 116z" glyph-name="h" horiz-adv-x="500"/>
<glyph unicode="i" d="M112 724q9 0 14.5 -6t5.5 -14t-5.5 -13.5t-14.5 -5.5t-14.5 5.5t-5.5 13.5t5.5 14t14.5 6zM122 519v-519h-22v519h22z" glyph-name="i" horiz-adv-x="223"/>
<glyph unicode="j" d="M111 724q9 0 14.5 -6t5.5 -14t-5.5 -13.5t-14.5 -5.5t-14.5 5.5t-5.5 13.5t5.5 14t14.5 6zM123 519v-513q0 -62 -12 -100.5t-31 -58.5t-56 -42l-7 17q48 29 66 65t18 120v512h22z" glyph-name="j" horiz-adv-x="223"/>
<glyph unicode="k" d="M122 736v-736h-22v733zM365 519l-211 -235l232 -284h-26l-232 284l210 235h27z" glyph-name="k" horiz-adv-x="400"/>
<glyph unicode="l" d="M160 -10q-30 0 -47.5 19t-17.5 54v670l22 3v-672q0 -54 44 -54q17 0 33 8l7 -18q-22 -10 -41 -10z" glyph-name="l" horiz-adv-x="238"/>
<glyph unicode="m" d="M521 529q54 0 83.5 -42t29.5 -118v-369h-22v367q0 142 -91 142q-81 0 -143 -125v-384h-22v369q0 140 -91 140q-81 0 -143 -125v-384h-22v519h20l2 -104q58 114 144 114q46 0 74 -30.5t36 -86.5q58 117 145 117z" glyph-name="m" horiz-adv-x="729"/>
<glyph unicode="n" d="M285 529q120 0 120 -160v-369h-22v367q0 142 -100 142q-92 0 -161 -127v-382h-22v519h20l2 -106q65 116 163 116z" glyph-name="n" horiz-adv-x="500"/>
<glyph unicode="o" d="M242 529q85 0 131.5 -67t46.5 -200q0 -134 -47.5 -203t-131.5 -69q-85 0 -132 69t-47 200q0 133 48 201.5t132 68.5zM242 509q-74 0 -116 -62.5t-42 -187.5q0 -123 41.5 -185.5t115.5 -62.5t115.5 63t41.5 188q0 123 -41 185t-115 62z" glyph-name="o" horiz-adv-x="482"/>
<glyph unicode="p" d="M266 529q159 0 159 -265q0 -133 -43 -203.5t-121 -70.5q-83 0 -139 87v-269l-22 -4v715h20l1 -82q59 92 145 92zM260 11q141 0 141 253q0 245 -135 245q-45 0 -79 -25.5t-65 -73.5v-303q58 -96 138 -96z" glyph-name="p" horiz-adv-x="487"/>
<glyph unicode="q" d="M372 519h19v-715l-22 4v277q-48 -95 -138 -95q-78 0 -123 70.5t-45 197.5q0 125 46.5 198t127.5 73q83 0 133 -82zM231 11q87 0 138 108v298q-50 92 -132 92q-70 0 -111 -66t-40 -185t39.5 -183t105.5 -64z" glyph-name="q" horiz-adv-x="492"/>
<glyph unicode="r" d="M255 529q21 0 43 -6l-5 -18q-18 5 -38 5q-50 0 -80.5 -39t-52.5 -123v-348h-22v519h20l1 -123q21 69 52.5 101t81.5 32z" glyph-name="r" horiz-adv-x="313"/>
<glyph unicode="s" d="M197 529q75 0 134 -55l-12 -15q-56 50 -121 50q-50 0 -82.5 -29.5t-32.5 -78.5q0 -42 26.5 -67t94.5 -50q77 -28 108 -59.5t31 -90.5q0 -64 -41.5 -104t-105.5 -40q-86 0 -152 66l13 14q63 -60 139 -60q55 0 90 33t35 91q0 52 -27 79t-101 54q-73 27 -103 56.5t-30 77.5 q0 56 39.5 92t97.5 36z" glyph-name="s" horiz-adv-x="396"/>
<glyph unicode="t" d="M271 36l10 -16q-42 -30 -87 -30q-46 0 -72 29.5t-26 81.5v398h-74v20h74v131l22 2v-133h123l-4 -20h-119v-397q0 -91 77 -91q41 0 76 25z" glyph-name="t" horiz-adv-x="280"/>
<glyph unicode="u" d="M396 519v-519h-20l-1 103q-55 -113 -152 -113q-60 0 -93.5 39t-33.5 109v381h22v-380q0 -62 27.5 -95t78.5 -33q91 0 150 122v386h22z" glyph-name="u" horiz-adv-x="496"/>
<glyph unicode="v" d="M371 519l-156 -519h-28l-165 519h24l154 -500l148 500h23z" glyph-name="v" horiz-adv-x="393"/>
<glyph unicode="w" d="M563 519l-117 -519h-29l-119 497l-119 -497h-29l-118 519h23l110 -497l120 497h27l120 -497l109 497h22z" glyph-name="w" horiz-adv-x="594"/>
<glyph unicode="x" d="M203 279l160 -279h-25l-149 265l-147 -265h-24l158 278l-136 241h24l126 -228l127 228h25z" glyph-name="x" horiz-adv-x="381"/>
<glyph unicode="y" d="M367 519l-155 -520q-27 -91 -58 -131t-100 -63l-3 18q63 22 89 57.5t52 119.5h-9l-161 519h23l153 -503l146 503h23z" glyph-name="y" horiz-adv-x="390"/>
<glyph unicode="z" d="M323 519v-18l-271 -480h265l-2 -21h-288v18l271 481h-249v20h274z" glyph-name="z" horiz-adv-x="354"/>
<glyph unicode="{" d="M211 818v-16q-37 0 -54 -21t-17 -66v-274q0 -46 -16 -66t-50 -26q34 -6 50 -26t16 -66v-274q0 -45 17 -66t54 -21v-16q-90 0 -90 103v283q0 73 -68 73v20q68 0 68 73v283q0 103 90 103z" glyph-name="braceleft" horiz-adv-x="282"/>
<glyph unicode="|" d="M188 801v-899h-22v899h22z" glyph-name="bar" horiz-adv-x="354"/>
<glyph unicode="}" d="M71 818q90 0 90 -103v-283q0 -73 67 -73v-20q-67 0 -67 -73v-283q0 -103 -90 -103v16q37 0 54 21t17 66v280q0 42 16 61.5t50 24.5q-34 5 -50 24.5t-16 61.5v280q0 45 -17 66t-54 21v16z" glyph-name="braceright" horiz-adv-x="282"/>
<glyph unicode="~" d="M264 281q-24 0 -67.5 27t-62.5 27t-31 -10t-28 -32l-16 9q32 54 75 54q25 0 67.5 -27t63.5 -27q28 0 55 41l15 -8q-29 -54 -71 -54z" glyph-name="asciitilde" horiz-adv-x="394"/>
<glyph unicode=" " glyph-name="uni00A0" horiz-adv-x="254"/>
<glyph unicode="¡" d="M110 453q10 0 16.5 -7t6.5 -16t-6.5 -16t-16.5 -7t-16.5 7t-6.5 16t6.5 16t16.5 7zM121 252v-444h-21v444h21z" glyph-name="exclamdown" horiz-adv-x="221"/>
<glyph unicode="¢" d="M365 44q-50 -51 -113 -54v-136h-20v137q-79 5 -124.5 73t-45.5 193q0 126 46 196.5t126 75.5v147h19v-147q60 -3 107 -50l-12 -15q-45 45 -104 45q-73 0 -116 -64t-43 -188q0 -122 43 -184t115 -62q62 0 109 47z" glyph-name="cent" horiz-adv-x="395"/>
<glyph unicode="£" d="M146 137q0 -49 -14.5 -73.5t-49.5 -42.5h293l-3 -21h-319v21q39 21 55 45t16 69v208h-54v21h54v147q0 71 35 116.5t99 45.5q75 0 125 -67l-15 -13q-45 60 -110 60q-54 0 -83 -39t-29 -104v-146h185v-21h-185v-206z" glyph-name="sterling" horiz-adv-x="432"/>
<glyph unicode="¤" d="M423 133l-16 -13l-68 78q-39 -37 -99 -37q-58 0 -97 37l-68 -78l-15 13l69 79q-39 52 -39 128q0 77 38 126l-69 80l15 13l67 -78q41 39 99 39q60 0 100 -38l66 77l15 -13l-68 -79q38 -47 38 -127q0 -78 -38 -127zM240 180q62 0 96 42.5t34 117.5q0 76 -34 118.5t-96 42.5 q-60 0 -94 -43t-34 -118q0 -76 34 -118t94 -42z" glyph-name="currency" horiz-adv-x="482"/>
<glyph unicode="¥" d="M402 661l-172 -332h107v-21h-115v-118h115v-22h-115v-168h-23v168h-113v22h113v118h-113v21h105l-173 332h24l169 -331l167 331h24z" glyph-name="yen" horiz-adv-x="419"/>
<glyph unicode="¦" d="M188 801v-358h-22v358h22zM188 262v-360h-22v360h22z" glyph-name="brokenbar" horiz-adv-x="354"/>
<glyph unicode="§" d="M304 159q49 -35 49 -97q0 -57 -37.5 -91.5t-96.5 -34.5q-74 0 -132 44l12 17q52 -40 120 -40q52 0 82 29t30 75q0 42 -22.5 66t-88.5 51q-76 30 -106 59t-30 85q0 72 74 129q-51 35 -51 96q0 57 36.5 91t93.5 34q63 0 123 -43l-11 -17q-53 40 -112 40q-49 0 -78 -28.5 t-29 -75.5q0 -42 23 -66t94 -52q69 -28 97.5 -60t28.5 -83q0 -77 -69 -128zM106 322q0 -47 24.5 -72t95.5 -53q40 -16 62 -29q63 47 63 118q0 44 -23 71.5t-88 53.5q-42 17 -67 31q-67 -54 -67 -120z" glyph-name="section" horiz-adv-x="458"/>
<glyph unicode="¨" d="M54 712q19 0 19 -20q0 -19 -19 -19t-19 19q0 20 19 20zM199 712q8 0 13.5 -6t5.5 -14q0 -19 -19 -19q-20 0 -20 19q0 8 5.5 14t14.5 6z" glyph-name="dieresis" horiz-adv-x="243"/>
<glyph unicode="©" d="M348 722q106 0 173.5 -77t67.5 -210q0 -132 -67.5 -209.5t-173.5 -77.5t-173.5 77t-67.5 210q0 132 67.5 209.5t173.5 77.5zM348 701q-97 0 -158.5 -71.5t-61.5 -194.5q0 -125 61 -195.5t159 -70.5q97 0 158.5 71.5t61.5 194.5q0 125 -61 195.5t-159 70.5zM347 606 q44 0 76 -29l-11 -15q-27 24 -65 24q-37 0 -65 -35.5t-28 -113.5t26 -115t69 -37q38 0 72 28l10 -16q-34 -32 -83 -32q-52 0 -83.5 43.5t-31.5 128.5t34 127t80 42z" glyph-name="copyright" horiz-adv-x="696"/>
<glyph unicode="«" d="M211 503l15 -9l-122 -206l122 -205l-15 -9l-131 207v14zM385 503l15 -9l-122 -206l122 -205l-15 -9l-131 207v14z" glyph-name="guillemotleft" horiz-adv-x="480"/>
<glyph unicode="¬" d="M360 331v-133h-23v112h-271v21h294z" glyph-name="logicalnot" horiz-adv-x="426"/>
<glyph unicode="­" d="M66 302v21h211v-21h-211z" glyph-name="uni00AD" horiz-adv-x="344"/>
<glyph unicode="®" d="M274 721q84 0 138.5 -59.5t54.5 -159.5t-54 -162t-139 -62q-84 0 -138.5 59.5t-54.5 160.5q0 99 54 161t139 62zM274 297q77 0 125.5 56t48.5 149t-48.5 147t-125.5 54t-125.5 -56t-48.5 -149t49 -147t125 -54zM351 562q0 -60 -54 -73l63 -120h-24l-60 118h-46v-118h-20 v269h53q88 0 88 -76zM230 618v-112h45q56 0 56 56t-65 56h-36z" glyph-name="registered" horiz-adv-x="548"/>
<glyph unicode="¯" d="M215 685h-181v20h181v-20z" glyph-name="macron" horiz-adv-x="241"/>
<glyph unicode="°" d="M188 411q-50 0 -84 37.5t-34 103.5q0 63 34.5 101t83.5 38q53 0 86.5 -37.5t33.5 -102.5q0 -64 -33.5 -102t-86.5 -38zM188 431q45 0 71 31.5t26 88.5t-26 88.5t-71 31.5q-42 0 -68.5 -31.5t-26.5 -87.5t27 -88.5t68 -32.5z" glyph-name="degree" horiz-adv-x="434"/>
<glyph unicode="±" d="M220 494v-153h131v-21h-131v-152h-22v152h-132v21h132v153h22zM66 0v21h285v-21h-285z" glyph-name="plusminus" horiz-adv-x="417"/>
<glyph unicode="²" d="M170 738q46 0 71.5 -28.5t25.5 -75.5q0 -60 -30 -108.5t-141 -182.5h181l-4 -21h-202v20q111 133 142 183.5t31 107.5q0 40 -19.5 62.5t-54.5 22.5q-51 0 -87 -48l-16 12q45 56 103 56z" glyph-name="uni00B2" horiz-adv-x="344"/>
<glyph unicode="³" d="M172 740q45 0 71.5 -28t26.5 -73q0 -42 -22 -67.5t-57 -30.5q39 -2 64 -29.5t25 -75.5q0 -53 -31.5 -87t-82.5 -34q-61 0 -103 53l15 11q36 -44 88 -44q44 0 68 27t24 73q0 95 -89 95h-22l2 19h18q33 0 57.5 22.5t24.5 66.5q0 38 -21 60t-56 22q-47 0 -87 -39l-12 13 q44 46 99 46z" glyph-name="uni00B3" horiz-adv-x="344"/>
<glyph unicode="´" d="M185 759l11 -21l-154 -84l-9 15z" glyph-name="acute" horiz-adv-x="223"/>
<glyph unicode="µ" d="M418 -3l-20 -2q-19 64 -23 128q-57 -133 -152 -133q-81 0 -104 84q3 -53 3 -138v-128l-22 -2v713h22v-377q0 -68 28.5 -99.5t72.5 -31.5q91 0 149 140v368h22v-349q0 -93 24 -173z" glyph-name="uni00B5" horiz-adv-x="501"/>
<glyph unicode="¶" d="M287 681h161v-873l-22 -4v857h-121v-853l-21 -4v502q-98 3 -142 54.5t-44 133.5q0 89 50 138t139 49z" glyph-name="paragraph" horiz-adv-x="592"/>
<glyph unicode="·" d="M77 349q10 0 16.5 -7t6.5 -16t-6.5 -16t-16.5 -7t-16.5 7t-6.5 16t6.5 16t16.5 7z" glyph-name="periodcentered" horiz-adv-x="154"/>
<glyph unicode="¸" d="M90 9l-1 -83q78 -8 78 -67q0 -34 -21.5 -52.5t-52.5 -18.5q-34 0 -59 18l10 16q23 -15 49 -15q23 0 38 13t15 39q0 50 -78 51l6 99h16z" glyph-name="cedilla" horiz-adv-x="193"/>
<glyph unicode="¹" d="M216 732v-410h-21v386l-94 -65l-11 15l109 74h17z" glyph-name="uni00B9" horiz-adv-x="345"/>
<glyph unicode="»" d="M95 503l131 -208v-14l-131 -207l-15 9l122 205l-121 206zM267 503l131 -208v-14l-131 -207l-15 9l122 205l-121 206z" glyph-name="guillemotright" horiz-adv-x="478"/>
<glyph unicode="¼" d="M552 742l18 -8l-351 -800l-18 8zM209 271h-21v386l-94 -65l-11 15l109 74h17v-410zM714 132v-20h-50v-112h-21v112h-165v18l114 288l18 -7l-111 -279h144l3 127h18v-127h50z" glyph-name="onequarter" horiz-adv-x="769"/>
<glyph unicode="½" d="M552 742l18 -8l-351 -800l-18 8zM209 681v-410h-21v386l-94 -65l-11 15l109 74h17zM595 416q46 0 71.5 -28.5t25.5 -75.5q0 -60 -30 -108.5t-141 -182.5h181l-4 -21h-202v20q111 133 142 183.5t31 107.5q0 40 -19.5 62.5t-54.5 22.5q-51 0 -87 -48l-16 12q45 56 103 56z " glyph-name="onehalf" horiz-adv-x="769"/>
<glyph unicode="¾" d="M551 742l18 -8l-351 -800l-18 8zM280 385q0 -53 -31.5 -87t-82.5 -34q-61 0 -103 53l15 11q36 -44 88 -44q44 0 68 27t24 73q0 95 -89 95h-22l2 19h18q33 0 57.5 22.5t24.5 66.5q0 38 -21 60t-56 22q-47 0 -87 -39l-12 13q44 46 99 46q45 0 71.5 -28t26.5 -73 q0 -42 -22 -67.5t-57 -30.5q39 -2 64 -29.5t25 -75.5zM714 132v-20h-50v-112h-21v112h-165v18l114 288l18 -7l-111 -279h144l3 127h18v-127h50z" glyph-name="threequarters" horiz-adv-x="768"/>
<glyph unicode="¿" d="M220 407q-10 0 -16.5 7t-6.5 16t6.5 16t16.5 7t16.5 -7t6.5 -16t-6.5 -16t-16.5 -7zM186 -197q-60 0 -97 38t-37 94q0 40 16.5 70t39.5 49.5l46 39t39.5 50.5t16.5 73v35h20v-37q0 -45 -16 -77.5t-39 -52t-46 -38t-39 -46.5t-16 -66q0 -48 31 -79.5t81 -31.5 q43 0 74.5 18t61.5 59l16 -13q-64 -85 -152 -85z" glyph-name="questiondown" horiz-adv-x="390"/>
<glyph unicode="À" d="M327 778l-8 -15l-154 73l12 22zM439 0l-60 203h-270l-59 -203h-22l203 681h28l203 -681h-23zM115 224h258l-129 439z" glyph-name="Agrave" horiz-adv-x="490"/>
<glyph unicode="Á" d="M325 837l-155 -73l-7 14l151 81zM439 0l-60 203h-270l-59 -203h-22l203 681h28l203 -681h-23zM115 224h258l-129 439z" glyph-name="Aacute" horiz-adv-x="490"/>
<glyph unicode="Â" d="M245 846l-99 -79l-11 11l104 91h12l104 -91l-11 -11zM439 0l-60 203h-270l-59 -203h-22l203 681h28l203 -681h-23zM115 224h258l-129 439z" glyph-name="Acircumflex" horiz-adv-x="490"/>
<glyph unicode="Ã" d="M194 848q-25 0 -51 -35l-14 8q31 46 65 46q18 0 50.5 -22t49.5 -22q26 0 51 41l14 -7q-27 -53 -65 -53q-22 0 -54 22t-46 22zM439 0l-60 203h-270l-59 -203h-22l203 681h28l203 -681h-23zM115 224h258l-129 439z" glyph-name="Atilde" horiz-adv-x="490"/>
<glyph unicode="Ä" d="M177 799q-19 0 -19 19q0 8 5.5 14t13.5 6q20 0 20 -20q0 -19 -20 -19zM322 799q-20 0 -20 19q0 8 5.5 14t14.5 6q19 0 19 -20q0 -19 -19 -19zM439 0l-60 203h-270l-59 -203h-22l203 681h28l203 -681h-23zM115 224h258l-129 439z" glyph-name="Adieresis" horiz-adv-x="490"/>
<glyph unicode="Å" d="M245 770q-32 0 -51 21t-19 57q0 37 19 58t51 21t51 -21t19 -57q0 -37 -19.5 -58t-50.5 -21zM245 909q-50 0 -50 -61t50 -61q49 0 49 62q0 60 -49 60zM439 0l-60 203h-270l-59 -203h-22l203 681h28l203 -681h-23zM115 224h258l-129 439z" glyph-name="Aring" horiz-adv-x="490"/>
<glyph unicode="Æ" d="M416 21h199v-21h-216l-44 196h-258l-64 -196h-23l227 681h332l-2 -21h-294l65 -290h225v-21h-220zM104 218h246l-100 445z" glyph-name="AE" horiz-adv-x="652"/>
<glyph unicode="Ç" d="M442 54q-61 -63 -146 -64l-1 -64q78 -8 78 -67q0 -34 -21.5 -52.5t-51.5 -18.5q-35 0 -60 18l10 16q22 -15 50 -15q23 0 37.5 13t14.5 39q0 50 -78 51l5 81q-96 7 -154.5 97t-58.5 252q0 174 64 262.5t166 88.5q80 0 140 -58l-13 -15q-31 27 -58.5 39.5t-66.5 12.5 q-94 0 -151 -81t-57 -249q0 -160 56.5 -244t148.5 -84q44 0 74 15t60 43z" glyph-name="Ccedilla" horiz-adv-x="464"/>
<glyph unicode="È" d="M179 858l150 -80l-8 -15l-154 73zM383 681l-3 -21h-253v-290h218v-21h-218v-328h262v-21h-284v681h278z" glyph-name="Egrave" horiz-adv-x="426"/>
<glyph unicode="É" d="M316 859l11 -22l-155 -73l-7 14zM383 681l-3 -21h-253v-290h218v-21h-218v-328h262v-21h-284v681h278z" glyph-name="Eacute" horiz-adv-x="426"/>
<glyph unicode="Ê" d="M148 767l-11 11l104 91h12l104 -91l-11 -11l-99 79zM383 681l-3 -21h-253v-290h218v-21h-218v-328h262v-21h-284v681h278z" glyph-name="Ecircumflex" horiz-adv-x="426"/>
<glyph unicode="Ë" d="M179 838q20 0 20 -20q0 -19 -20 -19q-19 0 -19 19q0 8 5.5 14t13.5 6zM324 838q19 0 19 -20q0 -19 -19 -19q-20 0 -20 19q0 8 5.5 14t14.5 6zM383 681l-3 -21h-253v-290h218v-21h-218v-328h262v-21h-284v681h278z" glyph-name="Edieresis" horiz-adv-x="426"/>
<glyph unicode="Ì" d="M48 858l150 -80l-8 -15l-154 73zM127 681v-681h-22v681h22z" glyph-name="Igrave" horiz-adv-x="232"/>
<glyph unicode="Í" d="M185 859l11 -22l-155 -73l-7 14zM127 681v-681h-22v681h22z" glyph-name="Iacute" horiz-adv-x="232"/>
<glyph unicode="Î" d="M16 767l-11 11l104 91h12l104 -91l-11 -11l-99 79zM127 681v-681h-22v681h22z" glyph-name="Icircumflex" horiz-adv-x="232"/>
<glyph unicode="Ï" d="M48 838q20 0 20 -20q0 -19 -20 -19q-19 0 -19 19q0 8 5.5 14t13.5 6zM193 838q19 0 19 -20q0 -19 -19 -19q-20 0 -20 19q0 8 5.5 14t14.5 6zM127 681v-681h-22v681h22z" glyph-name="Idieresis" horiz-adv-x="232"/>
<glyph unicode="Ð" d="M209 681q53 0 95 -13.5t81 -48t60.5 -103t21.5 -168.5q0 -82 -15.5 -145t-40 -100.5t-58.5 -61.5t-68 -32.5t-72 -8.5h-110v341h-80v22h80v318h106zM214 21q46 0 83.5 14.5t72 48.5t54 101.5t19.5 162.5q0 96 -20 161.5t-56 96.5t-73 42.5t-85 11.5h-83v-297h163v-22 h-163v-320h88z" glyph-name="Eth" horiz-adv-x="533"/>
<glyph unicode="Ñ" d="M340 804q-22 0 -54 22t-46 22q-25 0 -51 -35l-14 8q31 46 65 46q18 0 50.5 -22t49.5 -22q26 0 51 41l14 -7q-27 -53 -65 -53zM465 681v-681h-29l-312 655q3 -102 3 -178v-477h-22v681h29l312 -655q-3 120 -3 179v476h22z" glyph-name="Ntilde" horiz-adv-x="570"/>
<glyph unicode="Ò" d="M229 858l150 -80l-8 -15l-154 73zM296 691q107 0 169 -89t62 -262q0 -170 -61 -260t-170 -90q-106 0 -168 89.5t-62 259.5t62.5 261t167.5 91zM296 670q-95 0 -150.5 -84t-55.5 -247q0 -161 55.5 -244t150.5 -83q100 0 153.5 82t53.5 246q0 165 -55 247.5t-152 82.5z" glyph-name="Ograve"/>
<glyph unicode="Ó" d="M366 859l11 -22l-155 -73l-7 14zM296 691q107 0 169 -89t62 -262q0 -170 -61 -260t-170 -90q-106 0 -168 89.5t-62 259.5t62.5 261t167.5 91zM296 670q-95 0 -150.5 -84t-55.5 -247q0 -161 55.5 -244t150.5 -83q100 0 153.5 82t53.5 246q0 165 -55 247.5t-152 82.5z" glyph-name="Oacute"/>
<glyph unicode="Ô" d="M197 767l-11 11l104 91h12l104 -91l-11 -11l-99 79zM296 691q107 0 169 -89t62 -262q0 -170 -61 -260t-170 -90q-106 0 -168 89.5t-62 259.5t62.5 261t167.5 91zM296 670q-95 0 -150.5 -84t-55.5 -247q0 -161 55.5 -244t150.5 -83q100 0 153.5 82t53.5 246 q0 165 -55 247.5t-152 82.5z" glyph-name="Ocircumflex"/>
<glyph unicode="Õ" d="M346 804q-22 0 -54 22t-46 22q-25 0 -51 -35l-14 8q31 46 65 46q18 0 50.5 -22t49.5 -22q26 0 51 41l14 -7q-27 -53 -65 -53zM296 691q107 0 169 -89t62 -262q0 -170 -61 -260t-170 -90q-106 0 -168 89.5t-62 259.5t62.5 261t167.5 91zM296 670q-95 0 -150.5 -84 t-55.5 -247q0 -161 55.5 -244t150.5 -83q100 0 153.5 82t53.5 246q0 165 -55 247.5t-152 82.5z" glyph-name="Otilde"/>
<glyph unicode="Ö" d="M229 838q20 0 20 -20q0 -19 -20 -19q-19 0 -19 19q0 8 5.5 14t13.5 6zM374 838q19 0 19 -20q0 -19 -19 -19q-20 0 -20 19q0 8 5.5 14t14.5 6zM296 691q107 0 169 -89t62 -262q0 -170 -61 -260t-170 -90q-106 0 -168 89.5t-62 259.5t62.5 261t167.5 91zM296 670 q-95 0 -150.5 -84t-55.5 -247q0 -161 55.5 -244t150.5 -83q100 0 153.5 82t53.5 246q0 165 -55 247.5t-152 82.5z" glyph-name="Odieresis"/>
<glyph unicode="×" d="M319 455l17 -13l-113 -135l113 -134l-17 -13l-110 134l-111 -134l-16 13l111 134l-111 135l17 13l109 -134z" glyph-name="multiply" horiz-adv-x="418"/>
<glyph unicode="Ø" d="M390 670q137 -68 137 -330q0 -170 -61 -260t-170 -90q-39 0 -75 14l-29 -115l-22 7l32 116q-65 34 -100.5 116.5t-35.5 210.5q0 170 62.5 261t167.5 91q40 0 76 -12l29 119l22 -6zM90 339q0 -241 120 -307l157 625q-30 13 -71 13q-95 0 -150.5 -84t-55.5 -247zM296 12 q100 0 153.5 82t53.5 246q0 246 -120 310l-157 -625q32 -13 70 -13z" glyph-name="Oslash"/>
<glyph unicode="Ù" d="M207 858l150 -80l-8 -15l-154 73zM454 681v-497q0 -87 -44.5 -140.5t-134.5 -53.5q-91 0 -135.5 53.5t-44.5 140.5v497h22v-495q0 -80 38.5 -127t119.5 -47q80 0 118 47.5t38 126.5v495h23z" glyph-name="Ugrave" horiz-adv-x="549"/>
<glyph unicode="Ú" d="M344 859l11 -22l-155 -73l-7 14zM454 681v-497q0 -87 -44.5 -140.5t-134.5 -53.5q-91 0 -135.5 53.5t-44.5 140.5v497h22v-495q0 -80 38.5 -127t119.5 -47q80 0 118 47.5t38 126.5v495h23z" glyph-name="Uacute" horiz-adv-x="549"/>
<glyph unicode="Û" d="M175 767l-11 11l104 91h12l104 -91l-11 -11l-99 79zM454 681v-497q0 -87 -44.5 -140.5t-134.5 -53.5q-91 0 -135.5 53.5t-44.5 140.5v497h22v-495q0 -80 38.5 -127t119.5 -47q80 0 118 47.5t38 126.5v495h23z" glyph-name="Ucircumflex" horiz-adv-x="549"/>
<glyph unicode="Ü" d="M206 838q20 0 20 -20q0 -19 -20 -19q-19 0 -19 19q0 8 5.5 14t13.5 6zM351 838q19 0 19 -20q0 -19 -19 -19q-20 0 -20 19q0 8 5.5 14t14.5 6zM454 681v-497q0 -87 -44.5 -140.5t-134.5 -53.5q-91 0 -135.5 53.5t-44.5 140.5v497h22v-495q0 -80 38.5 -127t119.5 -47 q80 0 118 47.5t38 126.5v495h23z" glyph-name="Udieresis" horiz-adv-x="549"/>
<glyph unicode="Ý" d="M283 859l11 -22l-155 -73l-7 14zM409 681l-183 -411v-270h-23v270l-185 411h24l173 -390l170 390h24z" glyph-name="Yacute" horiz-adv-x="427"/>
<glyph unicode="Þ" d="M204 554q117 0 173 -48t56 -151q0 -110 -59 -159t-173 -49h-74v-147h-22v681h22v-127h77zM202 168q103 0 155 42.5t52 144.5q0 95 -49 136.5t-156 41.5h-77v-365h75z" glyph-name="Thorn" horiz-adv-x="477"/>
<glyph unicode="ß" d="M251 737q58 0 93.5 -34.5t35.5 -91.5q0 -29 -10.5 -53.5t-26 -40.5t-31 -30t-26 -31t-10.5 -36q0 -24 17.5 -44.5t42 -39t49 -40.5t42 -60t17.5 -88q0 -71 -34 -114.5t-92 -43.5q-42 0 -80 21l9 17q32 -17 69 -17q49 0 77 36t28 101q0 40 -12.5 72.5t-31 51.5t-40 37.5 t-40 32t-31 34t-12.5 44.5q0 25 16 48t35.5 38t35.5 43t16 62q0 49 -29 77t-77 28q-58 0 -93.5 -40.5t-35.5 -114.5v-561h-22v564q0 80 42 126.5t109 46.5z" glyph-name="germandbls" horiz-adv-x="493"/>
<glyph unicode="à" d="M302 669l-9 -15l-154 84l12 21zM355 99q0 -43 9 -63.5t31 -29.5l-6 -16q-53 18 -54 100q-49 -100 -143 -100q-64 0 -100 42.5t-36 111.5q0 79 49 121.5t135 42.5h93v67q0 67 -26 100.5t-85 33.5q-54 0 -126 -32l-6 18q71 34 133 34q132 0 132 -152v-278zM193 11 q92 0 140 107v170h-91q-79 0 -120.5 -36.5t-41.5 -107.5q0 -63 30 -98t83 -35z" glyph-name="agrave" horiz-adv-x="455"/>
<glyph unicode="á" d="M294 738l-155 -84l-9 15l152 90zM355 99q0 -43 9 -63.5t31 -29.5l-6 -16q-53 18 -54 100q-49 -100 -143 -100q-64 0 -100 42.5t-36 111.5q0 79 49 121.5t135 42.5h93v67q0 67 -26 100.5t-85 33.5q-54 0 -126 -32l-6 18q71 34 133 34q132 0 132 -152v-278zM193 11 q92 0 140 107v170h-91q-79 0 -120.5 -36.5t-41.5 -107.5q0 -63 30 -98t83 -35z" glyph-name="aacute" horiz-adv-x="455"/>
<glyph unicode="â" d="M219 739l-99 -84l-11 11l104 96h12l104 -96l-12 -11zM355 99q0 -43 9 -63.5t31 -29.5l-6 -16q-53 18 -54 100q-49 -100 -143 -100q-64 0 -100 42.5t-36 111.5q0 79 49 121.5t135 42.5h93v67q0 67 -26 100.5t-85 33.5q-54 0 -126 -32l-6 18q71 34 133 34q132 0 132 -152 v-278zM193 11q92 0 140 107v170h-91q-79 0 -120.5 -36.5t-41.5 -107.5q0 -63 30 -98t83 -35z" glyph-name="acircumflex" horiz-adv-x="455"/>
<glyph unicode="ã" d="M169 722q-25 0 -51 -35l-14 8q31 46 65 46q18 0 50.5 -22t49.5 -22q26 0 51 41l14 -7q-26 -53 -65 -53q-22 0 -54 22t-46 22zM355 99q0 -43 9 -63.5t31 -29.5l-6 -16q-53 18 -54 100q-49 -100 -143 -100q-64 0 -100 42.5t-36 111.5q0 79 49 121.5t135 42.5h93v67 q0 67 -26 100.5t-85 33.5q-54 0 -126 -32l-6 18q71 34 133 34q132 0 132 -152v-278zM193 11q92 0 140 107v170h-91q-79 0 -120.5 -36.5t-41.5 -107.5q0 -63 30 -98t83 -35z" glyph-name="atilde" horiz-adv-x="455"/>
<glyph unicode="ä" d="M146 673q-19 0 -19 19q0 8 5.5 14t13.5 6q20 0 20 -20q0 -19 -20 -19zM291 673q-20 0 -20 19q0 8 5.5 14t14.5 6q19 0 19 -20q0 -19 -19 -19zM355 99q0 -43 9 -63.5t31 -29.5l-6 -16q-53 18 -54 100q-49 -100 -143 -100q-64 0 -100 42.5t-36 111.5q0 79 49 121.5 t135 42.5h93v67q0 67 -26 100.5t-85 33.5q-54 0 -126 -32l-6 18q71 34 133 34q132 0 132 -152v-278zM193 11q92 0 140 107v170h-91q-79 0 -120.5 -36.5t-41.5 -107.5q0 -63 30 -98t83 -35z" glyph-name="adieresis" horiz-adv-x="455"/>
<glyph unicode="å" d="M219 644q-32 0 -51 21t-19 57q0 37 19 58t51 21t51 -21t19 -57q0 -37 -19.5 -58t-50.5 -21zM219 783q-50 0 -50 -61t50 -61q49 0 49 62q0 60 -49 60zM355 99q0 -43 9 -63.5t31 -29.5l-6 -16q-53 18 -54 100q-49 -100 -143 -100q-64 0 -100 42.5t-36 111.5q0 79 49 121.5 t135 42.5h93v67q0 67 -26 100.5t-85 33.5q-54 0 -126 -32l-6 18q71 34 133 34q132 0 132 -152v-278zM193 11q92 0 140 107v170h-91q-79 0 -120.5 -36.5t-41.5 -107.5q0 -63 30 -98t83 -35z" glyph-name="aring" horiz-adv-x="455"/>
<glyph unicode="æ" d="M669 284q0 -16 -2 -38h-311q2 -117 44 -176t112 -59q67 0 125 55l13 -15q-64 -61 -138 -61q-112 0 -156 118q-37 -63 -76 -90.5t-89 -27.5q-63 0 -99 42t-36 112q0 79 48.5 121.5t133.5 42.5h95v62q0 70 -26.5 104.5t-86.5 34.5q-52 0 -124 -32l-6 18q71 34 130 34 q66 0 97.5 -35t35.5 -106q41 141 154 141q80 0 121 -64t41 -181zM646 265q1 8 1 27q0 103 -35 160t-104 57q-67 0 -109 -62.5t-43 -181.5h290zM192 11q49 0 84.5 28.5t71.5 92.5q-15 52 -15 123v33h-95q-75 0 -117 -37t-42 -107q0 -62 30.5 -97.5t82.5 -35.5z" glyph-name="ae" horiz-adv-x="725"/>
<glyph unicode="ç" d="M365 44q-51 -53 -117 -54l-1 -64q78 -8 78 -67q0 -34 -21.5 -52.5t-51.5 -18.5q-35 0 -60 18l10 16q22 -15 50 -15q23 0 37.5 13t14.5 39q0 50 -78 51l5 81q-78 5 -123.5 73.5t-45.5 192.5q0 131 48.5 201.5t133.5 70.5q67 0 116 -50l-12 -15q-45 45 -104 45 q-73 0 -116 -64t-43 -188q0 -122 43 -184t115 -62q62 0 109 47z" glyph-name="ccedilla" horiz-adv-x="395"/>
<glyph unicode="è" d="M319 669l-9 -15l-154 84l12 21zM398 284q0 -16 -2 -38h-311q2 -118 44 -176.5t112 -58.5q65 0 126 55l12 -15q-64 -61 -137 -61q-83 0 -131.5 68.5t-48.5 196.5q0 130 46.5 202t127.5 72q79 0 120.5 -65t41.5 -180zM375 265q1 8 1 27q0 102 -34.5 159.5t-105.5 57.5 q-67 0 -108.5 -61t-42.5 -183h290z" glyph-name="egrave" horiz-adv-x="454"/>
<glyph unicode="é" d="M311 738l-155 -84l-9 15l152 90zM398 284q0 -16 -2 -38h-311q2 -118 44 -176.5t112 -58.5q65 0 126 55l12 -15q-64 -61 -137 -61q-83 0 -131.5 68.5t-48.5 196.5q0 130 46.5 202t127.5 72q79 0 120.5 -65t41.5 -180zM375 265q1 8 1 27q0 102 -34.5 159.5t-105.5 57.5 q-67 0 -108.5 -61t-42.5 -183h290z" glyph-name="eacute" horiz-adv-x="454"/>
<glyph unicode="ê" d="M236 739l-99 -84l-11 11l104 96h12l104 -96l-12 -11zM398 284q0 -16 -2 -38h-311q2 -118 44 -176.5t112 -58.5q65 0 126 55l12 -15q-64 -61 -137 -61q-83 0 -131.5 68.5t-48.5 196.5q0 130 46.5 202t127.5 72q79 0 120.5 -65t41.5 -180zM375 265q1 8 1 27 q0 102 -34.5 159.5t-105.5 57.5q-67 0 -108.5 -61t-42.5 -183h290z" glyph-name="ecircumflex" horiz-adv-x="454"/>
<glyph unicode="ë" d="M163 673q-19 0 -19 19q0 8 5.5 14t13.5 6q20 0 20 -20q0 -19 -20 -19zM308 673q-20 0 -20 19q0 8 5.5 14t14.5 6q19 0 19 -20q0 -19 -19 -19zM398 284q0 -16 -2 -38h-311q2 -118 44 -176.5t112 -58.5q65 0 126 55l12 -15q-64 -61 -137 -61q-83 0 -131.5 68.5t-48.5 196.5 q0 130 46.5 202t127.5 72q79 0 120.5 -65t41.5 -180zM375 265q1 8 1 27q0 102 -34.5 159.5t-105.5 57.5q-67 0 -108.5 -61t-42.5 -183h290z" glyph-name="edieresis" horiz-adv-x="454"/>
<glyph unicode="ì" d="M44 759l151 -90l-9 -15l-154 84zM122 519v-519h-22v519h22z" glyph-name="igrave" horiz-adv-x="223"/>
<glyph unicode="í" d="M174 759l12 -21l-155 -84l-9 15zM122 519v-519h-22v519h22z" glyph-name="iacute" horiz-adv-x="223"/>
<glyph unicode="î" d="M12 655l-11 11l104 96h12l104 -96l-12 -11l-98 84zM122 519v-519h-22v519h22z" glyph-name="icircumflex" horiz-adv-x="223"/>
<glyph unicode="ï" d="M39 712q20 0 20 -20q0 -19 -20 -19q-19 0 -19 19q0 8 5.5 14t13.5 6zM184 712q19 0 19 -20q0 -19 -19 -19q-20 0 -20 19q0 8 5.5 14t14.5 6zM122 519v-519h-22v519h22z" glyph-name="idieresis" horiz-adv-x="223"/>
<glyph unicode="ð" d="M264 665q69 -59 103.5 -146t34.5 -218q0 -157 -45 -234t-127 -77q-80 0 -124 64.5t-44 175.5q0 98 43.5 164.5t118.5 66.5q87 0 153 -97q-13 184 -126 287l-71 -85l-18 7l75 89q-57 43 -115 56l5 20q66 -17 123 -61l58 69l15 -11zM230 11q72 0 110.5 73t38.5 219v32 q-68 106 -154 106q-66 0 -103 -59.5t-37 -152.5q0 -103 38 -160.5t107 -57.5z" glyph-name="eth" horiz-adv-x="468"/>
<glyph unicode="ñ" d="M205 722q-25 0 -51 -35l-14 8q31 46 65 46q18 0 50.5 -22t49.5 -22q26 0 51 41l14 -7q-26 -53 -65 -53q-22 0 -54 22t-46 22zM285 529q120 0 120 -160v-369h-22v367q0 142 -100 142q-92 0 -161 -127v-382h-22v519h20l2 -106q65 116 163 116z" glyph-name="ntilde" horiz-adv-x="500"/>
<glyph unicode="ò" d="M174 759l151 -90l-9 -15l-154 84zM242 529q85 0 131.5 -67t46.5 -200q0 -134 -47.5 -203t-131.5 -69q-85 0 -132 69t-47 200q0 133 48 201.5t132 68.5zM242 509q-74 0 -116 -62.5t-42 -187.5q0 -123 41.5 -185.5t115.5 -62.5t115.5 63t41.5 188q0 123 -41 185t-115 62z " glyph-name="ograve" horiz-adv-x="482"/>
<glyph unicode="ó" d="M304 759l12 -21l-155 -84l-9 15zM242 529q85 0 131.5 -67t46.5 -200q0 -134 -47.5 -203t-131.5 -69q-85 0 -132 69t-47 200q0 133 48 201.5t132 68.5zM242 509q-74 0 -116 -62.5t-42 -187.5q0 -123 41.5 -185.5t115.5 -62.5t115.5 63t41.5 188q0 123 -41 185t-115 62z " glyph-name="oacute" horiz-adv-x="482"/>
<glyph unicode="ô" d="M142 655l-11 11l104 96h12l104 -96l-12 -11l-98 84zM242 529q85 0 131.5 -67t46.5 -200q0 -134 -47.5 -203t-131.5 -69q-85 0 -132 69t-47 200q0 133 48 201.5t132 68.5zM242 509q-74 0 -116 -62.5t-42 -187.5q0 -123 41.5 -185.5t115.5 -62.5t115.5 63t41.5 188 q0 123 -41 185t-115 62z" glyph-name="ocircumflex" horiz-adv-x="482"/>
<glyph unicode="õ" d="M292 678q-22 0 -54 22t-46 22q-25 0 -51 -35l-14 8q31 46 65 46q18 0 50.5 -22t49.5 -22q26 0 51 41l14 -7q-27 -53 -65 -53zM242 529q85 0 131.5 -67t46.5 -200q0 -134 -47.5 -203t-131.5 -69q-85 0 -132 69t-47 200q0 133 48 201.5t132 68.5zM242 509q-74 0 -116 -62.5 t-42 -187.5q0 -123 41.5 -185.5t115.5 -62.5t115.5 63t41.5 188q0 123 -41 185t-115 62z" glyph-name="otilde" horiz-adv-x="482"/>
<glyph unicode="ö" d="M169 712q20 0 20 -20q0 -19 -20 -19q-19 0 -19 19q0 8 5.5 14t13.5 6zM314 712q19 0 19 -20q0 -19 -19 -19q-20 0 -20 19q0 8 5.5 14t14.5 6zM242 529q85 0 131.5 -67t46.5 -200q0 -134 -47.5 -203t-131.5 -69q-85 0 -132 69t-47 200q0 133 48 201.5t132 68.5zM242 509 q-74 0 -116 -62.5t-42 -187.5q0 -123 41.5 -185.5t115.5 -62.5t115.5 63t41.5 188q0 123 -41 185t-115 62z" glyph-name="odieresis" horiz-adv-x="482"/>
<glyph unicode="÷" d="M209 560q10 0 16.5 -6.5t6.5 -15.5t-6.5 -16t-16.5 -7t-16.5 7t-6.5 16t6.5 15.5t16.5 6.5zM66 321v20h285v-20h-285zM209 146q10 0 16.5 -7t6.5 -16t-6.5 -16t-16.5 -7t-16.5 7t-6.5 16t6.5 16t16.5 7z" glyph-name="divide" horiz-adv-x="417"/>
<glyph unicode="ø" d="M323 509q97 -55 97 -247q0 -134 -47.5 -203t-131.5 -69q-35 0 -63 12l-36 -120l-19 5l37 123q-98 57 -98 249q0 133 48 201.5t132 68.5q33 0 63 -11l35 121l19 -6zM84 259q0 -177 84 -229l131 468q-27 11 -57 11q-74 0 -116 -62.5t-42 -187.5zM241 11q74 0 115.5 63 t41.5 188q0 177 -83 227l-131 -467q23 -11 57 -11z" glyph-name="oslash" horiz-adv-x="482"/>
<glyph unicode="ù" d="M179 759l151 -90l-9 -15l-154 84zM396 519v-519h-20l-1 103q-55 -113 -152 -113q-60 0 -93.5 39t-33.5 109v381h22v-380q0 -62 27.5 -95t78.5 -33q91 0 150 122v386h22z" glyph-name="ugrave" horiz-adv-x="496"/>
<glyph unicode="ú" d="M309 759l12 -21l-155 -84l-9 15zM396 519v-519h-20l-1 103q-55 -113 -152 -113q-60 0 -93.5 39t-33.5 109v381h22v-380q0 -62 27.5 -95t78.5 -33q91 0 150 122v386h22z" glyph-name="uacute" horiz-adv-x="496"/>
<glyph unicode="û" d="M147 655l-11 11l104 96h12l104 -96l-12 -11l-98 84zM396 519v-519h-20l-1 103q-55 -113 -152 -113q-60 0 -93.5 39t-33.5 109v381h22v-380q0 -62 27.5 -95t78.5 -33q91 0 150 122v386h22z" glyph-name="ucircumflex" horiz-adv-x="496"/>
<glyph unicode="ü" d="M173 712q20 0 20 -20q0 -19 -20 -19q-19 0 -19 19q0 8 5.5 14t13.5 6zM318 712q19 0 19 -20q0 -19 -19 -19q-20 0 -20 19q0 8 5.5 14t14.5 6zM396 519v-519h-20l-1 103q-55 -113 -152 -113q-60 0 -93.5 39t-33.5 109v381h22v-380q0 -62 27.5 -95t78.5 -33q91 0 150 122 v386h22z" glyph-name="udieresis" horiz-adv-x="496"/>
<glyph unicode="ý" d="M258 759l12 -21l-155 -84l-9 15zM367 519l-155 -520q-27 -91 -58 -131t-100 -63l-3 18q63 22 89 57.5t52 119.5h-9l-161 519h23l153 -503l146 503h23z" glyph-name="yacute" horiz-adv-x="390"/>
<glyph unicode="þ" d="M266 529q159 0 159 -265q0 -133 -43 -203.5t-121 -70.5q-84 0 -139 88v-270l-22 -4v929l22 3v-298q58 91 144 91zM260 11q141 0 141 253q0 245 -135 245q-45 0 -79 -25.5t-65 -73.5v-303q58 -96 138 -96z" glyph-name="thorn" horiz-adv-x="487"/>
</font>
</defs>
</svg>
